{
  "asset": {
    "version": "2.0",
    "generator": "vfx2obj"
  },
  "scenes": [
    {
      "nodes": [
        0
      ]
    }
  ],
  "scene": 0,
  "nodes": [
    {
      "name": "ClothMesh03",
      "mesh": 0
    }
  ],
  "meshes": [
    {
      "name": "ClothMesh03",
      "primitives": [
        {
          "attributes": {
            "POSITION": 0,
            "TEXCOORD_0": 1
          },
          "indices": 2,
          "material": 0
        }
      ]
    }
  ],
  "buffers": [
    {
      "uri": "CTFbanner-blue.bin",
      "byteLength": 10780
    }
  ],
  "bufferViews": [
    {
      "buffer": 0,
      "byteOffset": 0,
      "byteLength": 3156,
      "target": 34962
    },
    {
      "buffer": 0,
      "byteOffset": 3156,
      "byteLength": 2104,
      "target": 34962
    },
    {
      "buffer": 0,
      "byteOffset": 5260,
      "byteLength": 5520,
      "target": 34963
    }
  ],
  "accessors": [
    {
      "bufferView": 0,
      "componentType": 5126,
      "count": 263,
      "type": "VEC3",
      "min": [
        -0.6057712129784576,
        -0.07190251380961854,
        -0.917018624022603
      ],
      "max": [
        0.6141158632470123,
        0.07234954864543397,
        0.9241711813956499
      ]
    },
    {
      "bufferView": 1,
      "componentType": 5126,
      "count": 263,
      "type": "VEC2"
    },
    {
      "bufferView": 2,
      "componentType": 5123,
      "count": 2760,
      "type": "SCALAR"
    }
  ],
  "materials": [
    {
      "name": "mat_0",
      "pbrMetallicRoughness": {
        "baseColorFactor": [
          1.0,
          1.0,
          1.0,
          1.0
        ],
        "baseColorTexture": {
          "index": 0
        }
      },
      "doubleSided": true
    }
  ],
  "images": [
    {
      "uri": "CTFbanner-blue.tga"
    }
  ],
  "textures": [
    {
      "source": 0,
      "sampler": 0
    }
  ],
  "samplers": [
    {
      "magFilter": 9729,
      "minFilter": 9729,
      "wrapS": 10497,
      "wrapT": 10497
    }
  ]
}