{
  "asset": {
    "version": "2.0",
    "generator": "vfx2obj"
  },
  "scenes": [
    {
      "nodes": [
        0,
        1,
        2,
        3,
        4,
        5
      ]
    }
  ],
  "scene": 0,
  "nodes": [
    {
      "name": "csphere",
      "mesh": 0
    },
    {
      "name": "csphere",
      "mesh": 1
    },
    {
      "name": "csphere",
      "mesh": 2
    },
    {
      "name": "fishtail",
      "mesh": 3
    },
    {
      "name": "fishhead",
      "mesh": 4
    },
    {
      "name": "csphere",
      "mesh": 5
    }
  ],
  "meshes": [
    {
      "name": "csphere",
      "primitives": [
        {
          "attributes": {
            "POSITION": 0,
            "TEXCOORD_0": 1
          },
          "indices": 2,
          "material": 0
        }
      ]
    },
    {
      "name": "csphere",
      "primitives": [
        {
          "attributes": {
            "POSITION": 3,
            "TEXCOORD_0": 4
          },
          "indices": 5,
          "material": 0
        }
      ]
    },
    {
      "name": "csphere",
      "primitives": [
        {
          "attributes": {
            "POSITION": 6,
            "TEXCOORD_0": 7
          },
          "indices": 8,
          "material": 0
        }
      ]
    },
    {
      "name": "fishtail",
      "primitives": [
        {
          "attributes": {
            "POSITION": 9,
            "TEXCOORD_0": 10
          },
          "indices": 11,
          "material": 0
        }
      ]
    },
    {
      "name": "fishhead",
      "primitives": [
        {
          "attributes": {
            "POSITION": 12,
            "TEXCOORD_0": 13
          },
          "indices": 14,
          "material": 0
        }
      ]
    },
    {
      "name": "csphere",
      "primitives": [
        {
          "attributes": {
            "POSITION": 15,
            "TEXCOORD_0": 16
          },
          "indices": 17,
          "material": 0
        }
      ]
    }
  ],
  "buffers": [
    {
      "uri": "fish_death.bin",
      "byteLength": 16416
    }
  ],
  "bufferViews": [
    {
      "buffer": 0,
      "byteOffset": 0,
      "byteLength": 1368,
      "target": 34962
    },
    {
      "buffer": 0,
      "byteOffset": 1368,
      "byteLength": 912,
      "target": 34962
    },
    {
      "buffer": 0,
      "byteOffset": 2280,
      "byteLength": 1344,
      "target": 34963
    },
    {
      "buffer": 0,
      "byteOffset": 3624,
      "byteLength": 1368,
      "target": 34962
    },
    {
      "buffer": 0,
      "byteOffset": 4992,
      "byteLength": 912,
      "target": 34962
    },
    {
      "buffer": 0,
      "byteOffset": 5904,
      "byteLength": 1344,
      "target": 34963
    },
    {
      "buffer": 0,
      "byteOffset": 7248,
      "byteLength": 1368,
      "target": 34962
    },
    {
      "buffer": 0,
      "byteOffset": 8616,
      "byteLength": 912,
      "target": 34962
    },
    {
      "buffer": 0,
      "byteOffset": 9528,
      "byteLength": 1344,
      "target": 34963
    },
    {
      "buffer": 0,
      "byteOffset": 10872,
      "byteLength": 540,
      "target": 34962
    },
    {
      "buffer": 0,
      "byteOffset": 11412,
      "byteLength": 360,
      "target": 34962
    },
    {
      "buffer": 0,
      "byteOffset": 11772,
      "byteLength": 156,
      "target": 34963
    },
    {
      "buffer": 0,
      "byteOffset": 11928,
      "byteLength": 432,
      "target": 34962
    },
    {
      "buffer": 0,
      "byteOffset": 12360,
      "byteLength": 288,
      "target": 34962
    },
    {
      "buffer": 0,
      "byteOffset": 12648,
      "byteLength": 144,
      "target": 34963
    },
    {
      "buffer": 0,
      "byteOffset": 12792,
      "byteLength": 1368,
      "target": 34962
    },
    {
      "buffer": 0,
      "byteOffset": 14160,
      "byteLength": 912,
      "target": 34962
    },
    {
      "buffer": 0,
      "byteOffset": 15072,
      "byteLength": 1344,
      "target": 34963
    }
  ],
  "accessors": [
    {
      "bufferView": 0,
      "componentType": 5126,
      "count": 114,
      "type": "VEC3",
      "min": [
        -0.026610442591766537,
        -0.026610442591766537,
        -0.026610442591766537
      ],
      "max": [
        0.026610442591766537,
        0.026610442591766537,
        0.026610442591766537
      ]
    },
    {
      "bufferView": 1,
      "componentType": 5126,
      "count": 114,
      "type": "VEC2"
    },
    {
      "bufferView": 2,
      "componentType": 5123,
      "count": 672,
      "type": "SCALAR"
    },
    {
      "bufferView": 3,
      "componentType": 5126,
      "count": 114,
      "type": "VEC3",
      "min": [
        -0.01533236869362853,
        -0.01533236869362853,
        -0.01533236869362853
      ],
      "max": [
        0.01533236869362853,
        0.01533236869362853,
        0.01533236869362853
      ]
    },
    {
      "bufferView": 4,
      "componentType": 5126,
      "count": 114,
      "type": "VEC2"
    },
    {
      "bufferView": 5,
      "componentType": 5123,
      "count": 672,
      "type": "SCALAR"
    },
    {
      "bufferView": 6,
      "componentType": 5126,
      "count": 114,
      "type": "VEC3",
      "min": [
        -0.01782846565019058,
        -0.01782846565019058,
        -0.01782846565019058
      ],
      "max": [
        0.01782846565019058,
        0.01782846565019058,
        0.01782846565019058
      ]
    },
    {
      "bufferView": 7,
      "componentType": 5126,
      "count": 114,
      "type": "VEC2"
    },
    {
      "bufferView": 8,
      "componentType": 5123,
      "count": 672,
      "type": "SCALAR"
    },
    {
      "bufferView": 9,
      "componentType": 5126,
      "count": 45,
      "type": "VEC3",
      "min": [
        52.70018251486877,
        -7.737026035870866,
        17.877297493399315
      ],
      "max": [
        52.75816647461792,
        -7.599994122896835,
        17.937717941819496
      ]
    },
    {
      "bufferView": 10,
      "componentType": 5126,
      "count": 45,
      "type": "VEC2"
    },
    {
      "bufferView": 11,
      "componentType": 5123,
      "count": 78,
      "type": "SCALAR"
    },
    {
      "bufferView": 12,
      "componentType": 5126,
      "count": 36,
      "type": "VEC3",
      "min": [
        6.302315799375814,
        24.114288039971758,
        28.69030588924049
      ],
      "max": [
        6.330925913671214,
        24.156235508154463,
        28.739812433131945
      ]
    },
    {
      "bufferView": 13,
      "componentType": 5126,
      "count": 36,
      "type": "VEC2"
    },
    {
      "bufferView": 14,
      "componentType": 5123,
      "count": 72,
      "type": "SCALAR"
    },
    {
      "bufferView": 15,
      "componentType": 5126,
      "count": 114,
      "type": "VEC3",
      "min": [
        -0.019387594868580455,
        -0.019387594868580455,
        -0.019387594868580455
      ],
      "max": [
        0.019387594868580455,
        0.019387594868580455,
        0.019387594868580455
      ]
    },
    {
      "bufferView": 16,
      "componentType": 5126,
      "count": 114,
      "type": "VEC2"
    },
    {
      "bufferView": 17,
      "componentType": 5123,
      "count": 672,
      "type": "SCALAR"
    }
  ],
  "materials": [
    {
      "name": "mat_0",
      "pbrMetallicRoughness": {
        "baseColorFactor": [
          1.0,
          1.0,
          1.0,
          1.0
        ],
        "baseColorTexture": {
          "index": 0
        }
      },
      "doubleSided": true
    },
    {
      "name": "mat_1",
      "pbrMetallicRoughness": {
        "baseColorFactor": [
          1.0,
          1.0,
          1.0,
          1.0
        ],
        "baseColorTexture": {
          "index": 1
        }
      },
      "doubleSided": true
    }
  ],
  "images": [
    {
      "uri": "somenewblood_A.tga"
    },
    {
      "uri": "fish_small_debris.tga"
    }
  ],
  "textures": [
    {
      "source": 0,
      "sampler": 0
    },
    {
      "source": 1,
      "sampler": 0
    }
  ],
  "samplers": [
    {
      "magFilter": 9729,
      "minFilter": 9729,
      "wrapS": 10497,
      "wrapT": 10497
    }
  ]
}