{
  "asset": {
    "version": "2.0",
    "generator": "vfx2obj"
  },
  "scenes": [
    {
      "nodes": [
        0
      ]
    }
  ],
  "scene": 0,
  "nodes": [
    {
      "name": "Plane01",
      "mesh": 0
    }
  ],
  "meshes": [
    {
      "name": "Plane01",
      "primitives": [
        {
          "attributes": {
            "POSITION": 0,
            "TEXCOORD_0": 1
          },
          "indices": 2,
          "material": 0
        }
      ]
    }
  ],
  "buffers": [
    {
      "uri": "waterplants01.bin",
      "byteLength": 688
    }
  ],
  "bufferViews": [
    {
      "buffer": 0,
      "byteOffset": 0,
      "byteLength": 240,
      "target": 34962
    },
    {
      "buffer": 0,
      "byteOffset": 240,
      "byteLength": 160,
      "target": 34962
    },
    {
      "buffer": 0,
      "byteOffset": 400,
      "byteLength": 288,
      "target": 34963
    }
  ],
  "accessors": [
    {
      "bufferView": 0,
      "componentType": 5126,
      "count": 20,
      "type": "VEC3",
      "min": [
        375.2023050219577,
        128.21112726669526,
        -1.0694590491766576
      ],
      "max": [
        375.59747010163846,
        128.30535913963104,
        -0.5660924034600612
      ]
    },
    {
      "bufferView": 1,
      "componentType": 5126,
      "count": 20,
      "type": "VEC2"
    },
    {
      "bufferView": 2,
      "componentType": 5123,
      "count": 144,
      "type": "SCALAR"
    }
  ],
  "materials": [
    {
      "name": "mat_0",
      "pbrMetallicRoughness": {
        "baseColorFactor": [
          1.0,
          1.0,
          1.0,
          1.0
        ],
        "baseColorTexture": {
          "index": 0
        }
      },
      "doubleSided": true
    }
  ],
  "images": [
    {
      "uri": "seaplantst01_A.tga"
    }
  ],
  "textures": [
    {
      "source": 0,
      "sampler": 0
    }
  ],
  "samplers": [
    {
      "magFilter": 9729,
      "minFilter": 9729,
      "wrapS": 10497,
      "wrapT": 10497
    }
  ]
}