{
  "asset": {
    "version": "2.0",
    "generator": "vfx2obj"
  },
  "scenes": [
    {
      "nodes": [
        0,
        1,
        2,
        3,
        4,
        5,
        6,
        7,
        8,
        9,
        10,
        11,
        12,
        13,
        14
      ]
    }
  ],
  "scene": 0,
  "nodes": [
    {
      "name": "Mesh03",
      "mesh": 0
    },
    {
      "name": "Plane03",
      "mesh": 1
    },
    {
      "name": "Plane05",
      "mesh": 2
    },
    {
      "name": "Plane07",
      "mesh": 3
    },
    {
      "name": "Plane09",
      "mesh": 4
    },
    {
      "name": "Plane12",
      "mesh": 5
    },
    {
      "name": "Plane13",
      "mesh": 6
    },
    {
      "name": "Plane14",
      "mesh": 7
    },
    {
      "name": "Plane15",
      "mesh": 8
    },
    {
      "name": "Plane16",
      "mesh": 9
    },
    {
      "name": "Plane17",
      "mesh": 10
    },
    {
      "name": "Object01",
      "mesh": 11
    },
    {
      "name": "Plane18",
      "mesh": 12
    },
    {
      "name": "Plane19",
      "mesh": 13
    },
    {
      "name": "Plane20",
      "mesh": 14
    }
  ],
  "meshes": [
    {
      "name": "Mesh03",
      "primitives": [
        {
          "attributes": {
            "POSITION": 0,
            "TEXCOORD_0": 1
          },
          "indices": 2,
          "material": 0
        },
        {
          "attributes": {
            "POSITION": 0,
            "TEXCOORD_0": 1
          },
          "indices": 3,
          "material": 1
        },
        {
          "attributes": {
            "POSITION": 0,
            "TEXCOORD_0": 1
          },
          "indices": 4,
          "material": 2
        },
        {
          "attributes": {
            "POSITION": 0,
            "TEXCOORD_0": 1
          },
          "indices": 5,
          "material": 3
        }
      ]
    },
    {
      "name": "Plane03",
      "primitives": [
        {
          "attributes": {
            "POSITION": 6,
            "TEXCOORD_0": 7
          },
          "indices": 8,
          "material": 0
        }
      ]
    },
    {
      "name": "Plane05",
      "primitives": [
        {
          "attributes": {
            "POSITION": 9,
            "TEXCOORD_0": 10
          },
          "indices": 11,
          "material": 0
        }
      ]
    },
    {
      "name": "Plane07",
      "primitives": [
        {
          "attributes": {
            "POSITION": 12,
            "TEXCOORD_0": 13
          },
          "indices": 14,
          "material": 0
        }
      ]
    },
    {
      "name": "Plane09",
      "primitives": [
        {
          "attributes": {
            "POSITION": 15,
            "TEXCOORD_0": 16
          },
          "indices": 17,
          "material": 0
        }
      ]
    },
    {
      "name": "Plane12",
      "primitives": [
        {
          "attributes": {
            "POSITION": 18,
            "TEXCOORD_0": 19
          },
          "indices": 20,
          "material": 0
        }
      ]
    },
    {
      "name": "Plane13",
      "primitives": [
        {
          "attributes": {
            "POSITION": 21,
            "TEXCOORD_0": 22
          },
          "indices": 23,
          "material": 0
        }
      ]
    },
    {
      "name": "Plane14",
      "primitives": [
        {
          "attributes": {
            "POSITION": 24,
            "TEXCOORD_0": 25
          },
          "indices": 26,
          "material": 0
        }
      ]
    },
    {
      "name": "Plane15",
      "primitives": [
        {
          "attributes": {
            "POSITION": 27,
            "TEXCOORD_0": 28
          },
          "indices": 29,
          "material": 0
        }
      ]
    },
    {
      "name": "Plane16",
      "primitives": [
        {
          "attributes": {
            "POSITION": 30,
            "TEXCOORD_0": 31
          },
          "indices": 32,
          "material": 0
        }
      ]
    },
    {
      "name": "Plane17",
      "primitives": [
        {
          "attributes": {
            "POSITION": 33,
            "TEXCOORD_0": 34
          },
          "indices": 35,
          "material": 0
        }
      ]
    },
    {
      "name": "Object01",
      "primitives": [
        {
          "attributes": {
            "POSITION": 36,
            "TEXCOORD_0": 37
          },
          "indices": 38,
          "material": 1
        }
      ]
    },
    {
      "name": "Plane18",
      "primitives": [
        {
          "attributes": {
            "POSITION": 39,
            "TEXCOORD_0": 40
          },
          "indices": 41,
          "material": 0
        }
      ]
    },
    {
      "name": "Plane19",
      "primitives": [
        {
          "attributes": {
            "POSITION": 42,
            "TEXCOORD_0": 43
          },
          "indices": 44,
          "material": 0
        }
      ]
    },
    {
      "name": "Plane20",
      "primitives": [
        {
          "attributes": {
            "POSITION": 45,
            "TEXCOORD_0": 46
          },
          "indices": 47,
          "material": 0
        }
      ]
    }
  ],
  "buffers": [
    {
      "uri": "Cutscene08_fx.bin",
      "byteLength": 11024
    }
  ],
  "bufferViews": [
    {
      "buffer": 0,
      "byteOffset": 0,
      "byteLength": 4452,
      "target": 34962
    },
    {
      "buffer": 0,
      "byteOffset": 4452,
      "byteLength": 2968,
      "target": 34962
    },
    {
      "buffer": 0,
      "byteOffset": 7420,
      "byteLength": 792,
      "target": 34963
    },
    {
      "buffer": 0,
      "byteOffset": 8212,
      "byteLength": 192,
      "target": 34963
    },
    {
      "buffer": 0,
      "byteOffset": 8404,
      "byteLength": 960,
      "target": 34963
    },
    {
      "buffer": 0,
      "byteOffset": 9364,
      "byteLength": 216,
      "target": 34963
    },
    {
      "buffer": 0,
      "byteOffset": 9580,
      "byteLength": 48,
      "target": 34962
    },
    {
      "buffer": 0,
      "byteOffset": 9628,
      "byteLength": 32,
      "target": 34962
    },
    {
      "buffer": 0,
      "byteOffset": 9660,
      "byteLength": 12,
      "target": 34963
    },
    {
      "buffer": 0,
      "byteOffset": 9672,
      "byteLength": 48,
      "target": 34962
    },
    {
      "buffer": 0,
      "byteOffset": 9720,
      "byteLength": 32,
      "target": 34962
    },
    {
      "buffer": 0,
      "byteOffset": 9752,
      "byteLength": 12,
      "target": 34963
    },
    {
      "buffer": 0,
      "byteOffset": 9764,
      "byteLength": 48,
      "target": 34962
    },
    {
      "buffer": 0,
      "byteOffset": 9812,
      "byteLength": 32,
      "target": 34962
    },
    {
      "buffer": 0,
      "byteOffset": 9844,
      "byteLength": 12,
      "target": 34963
    },
    {
      "buffer": 0,
      "byteOffset": 9856,
      "byteLength": 48,
      "target": 34962
    },
    {
      "buffer": 0,
      "byteOffset": 9904,
      "byteLength": 32,
      "target": 34962
    },
    {
      "buffer": 0,
      "byteOffset": 9936,
      "byteLength": 12,
      "target": 34963
    },
    {
      "buffer": 0,
      "byteOffset": 9948,
      "byteLength": 48,
      "target": 34962
    },
    {
      "buffer": 0,
      "byteOffset": 9996,
      "byteLength": 32,
      "target": 34962
    },
    {
      "buffer": 0,
      "byteOffset": 10028,
      "byteLength": 12,
      "target": 34963
    },
    {
      "buffer": 0,
      "byteOffset": 10040,
      "byteLength": 48,
      "target": 34962
    },
    {
      "buffer": 0,
      "byteOffset": 10088,
      "byteLength": 32,
      "target": 34962
    },
    {
      "buffer": 0,
      "byteOffset": 10120,
      "byteLength": 12,
      "target": 34963
    },
    {
      "buffer": 0,
      "byteOffset": 10132,
      "byteLength": 48,
      "target": 34962
    },
    {
      "buffer": 0,
      "byteOffset": 10180,
      "byteLength": 32,
      "target": 34962
    },
    {
      "buffer": 0,
      "byteOffset": 10212,
      "byteLength": 12,
      "target": 34963
    },
    {
      "buffer": 0,
      "byteOffset": 10224,
      "byteLength": 48,
      "target": 34962
    },
    {
      "buffer": 0,
      "byteOffset": 10272,
      "byteLength": 32,
      "target": 34962
    },
    {
      "buffer": 0,
      "byteOffset": 10304,
      "byteLength": 12,
      "target": 34963
    },
    {
      "buffer": 0,
      "byteOffset": 10316,
      "byteLength": 48,
      "target": 34962
    },
    {
      "buffer": 0,
      "byteOffset": 10364,
      "byteLength": 32,
      "target": 34962
    },
    {
      "buffer": 0,
      "byteOffset": 10396,
      "byteLength": 12,
      "target": 34963
    },
    {
      "buffer": 0,
      "byteOffset": 10408,
      "byteLength": 48,
      "target": 34962
    },
    {
      "buffer": 0,
      "byteOffset": 10456,
      "byteLength": 32,
      "target": 34962
    },
    {
      "buffer": 0,
      "byteOffset": 10488,
      "byteLength": 12,
      "target": 34963
    },
    {
      "buffer": 0,
      "byteOffset": 10500,
      "byteLength": 120,
      "target": 34962
    },
    {
      "buffer": 0,
      "byteOffset": 10620,
      "byteLength": 80,
      "target": 34962
    },
    {
      "buffer": 0,
      "byteOffset": 10700,
      "byteLength": 48,
      "target": 34963
    },
    {
      "buffer": 0,
      "byteOffset": 10748,
      "byteLength": 48,
      "target": 34962
    },
    {
      "buffer": 0,
      "byteOffset": 10796,
      "byteLength": 32,
      "target": 34962
    },
    {
      "buffer": 0,
      "byteOffset": 10828,
      "byteLength": 12,
      "target": 34963
    },
    {
      "buffer": 0,
      "byteOffset": 10840,
      "byteLength": 48,
      "target": 34962
    },
    {
      "buffer": 0,
      "byteOffset": 10888,
      "byteLength": 32,
      "target": 34962
    },
    {
      "buffer": 0,
      "byteOffset": 10920,
      "byteLength": 12,
      "target": 34963
    },
    {
      "buffer": 0,
      "byteOffset": 10932,
      "byteLength": 48,
      "target": 34962
    },
    {
      "buffer": 0,
      "byteOffset": 10980,
      "byteLength": 32,
      "target": 34962
    },
    {
      "buffer": 0,
      "byteOffset": 11012,
      "byteLength": 12,
      "target": 34963
    }
  ],
  "accessors": [
    {
      "bufferView": 0,
      "componentType": 5126,
      "count": 371,
      "type": "VEC3",
      "min": [
        -16.279648173497886,
        -0.9419228012195304,
        -23.52634270775606
      ],
      "max": [
        -13.556052815271643,
        0.9204651291003898,
        -22.830573719856243
      ]
    },
    {
      "bufferView": 1,
      "componentType": 5126,
      "count": 371,
      "type": "VEC2"
    },
    {
      "bufferView": 2,
      "componentType": 5123,
      "count": 396,
      "type": "SCALAR"
    },
    {
      "bufferView": 3,
      "componentType": 5123,
      "count": 96,
      "type": "SCALAR"
    },
    {
      "bufferView": 4,
      "componentType": 5123,
      "count": 480,
      "type": "SCALAR"
    },
    {
      "bufferView": 5,
      "componentType": 5123,
      "count": 108,
      "type": "SCALAR"
    },
    {
      "bufferView": 6,
      "componentType": 5126,
      "count": 4,
      "type": "VEC3",
      "min": [
        -4177.18829397927,
        11231.494467501761,
        11334.967409451341
      ],
      "max": [
        -4175.203425838845,
        11233.479459042428,
        11334.991658846999
      ]
    },
    {
      "bufferView": 7,
      "componentType": 5126,
      "count": 4,
      "type": "VEC2"
    },
    {
      "bufferView": 8,
      "componentType": 5123,
      "count": 6,
      "type": "SCALAR"
    },
    {
      "bufferView": 9,
      "componentType": 5126,
      "count": 4,
      "type": "VEC3",
      "min": [
        3360.1325583003927,
        11226.707022433402,
        11568.2123053864
      ],
      "max": [
        3362.1174264408182,
        11228.692013974069,
        11568.236554782057
      ]
    },
    {
      "bufferView": 10,
      "componentType": 5126,
      "count": 4,
      "type": "VEC2"
    },
    {
      "bufferView": 11,
      "componentType": 5123,
      "count": 6,
      "type": "SCALAR"
    },
    {
      "bufferView": 12,
      "componentType": 5126,
      "count": 4,
      "type": "VEC3",
      "min": [
        11089.985949947732,
        -13872.385699505685,
        11722.712313015794
      ],
      "max": [
        11091.970818088157,
        -13870.400707965018,
        11722.736562411452
      ]
    },
    {
      "bufferView": 13,
      "componentType": 5126,
      "count": 4,
      "type": "VEC2"
    },
    {
      "bufferView": 14,
      "componentType": 5123,
      "count": 6,
      "type": "SCALAR"
    },
    {
      "bufferView": 15,
      "componentType": 5126,
      "count": 4,
      "type": "VEC3",
      "min": [
        -12548.127787158592,
        -13816.81032871711,
        11218.322311718797
      ],
      "max": [
        -12546.142919018166,
        -13814.825337176444,
        11218.346561114455
      ]
    },
    {
      "bufferView": 16,
      "componentType": 5126,
      "count": 4,
      "type": "VEC2"
    },
    {
      "bufferView": 17,
      "componentType": 5123,
      "count": 6,
      "type": "SCALAR"
    },
    {
      "bufferView": 18,
      "componentType": 5126,
      "count": 4,
      "type": "VEC3",
      "min": [
        -44619.360047797396,
        -22054.30992260257,
        1344.9516892433167
      ],
      "max": [
        -44619.11193327978,
        -22054.06180823047,
        1344.9516892433167
      ]
    },
    {
      "bufferView": 19,
      "componentType": 5126,
      "count": 4,
      "type": "VEC2"
    },
    {
      "bufferView": 20,
      "componentType": 5123,
      "count": 6,
      "type": "SCALAR"
    },
    {
      "bufferView": 21,
      "componentType": 5126,
      "count": 4,
      "type": "VEC3",
      "min": [
        44605.27412273483,
        -21866.891465469962,
        2024.4848728179932
      ],
      "max": [
        44605.522237252444,
        -21866.64335124338,
        2024.4848728179932
      ]
    },
    {
      "bufferView": 22,
      "componentType": 5126,
      "count": 4,
      "type": "VEC2"
    },
    {
      "bufferView": 23,
      "componentType": 5123,
      "count": 6,
      "type": "SCALAR"
    },
    {
      "bufferView": 24,
      "componentType": 5126,
      "count": 4,
      "type": "VEC3",
      "min": [
        5431.520857473515,
        -22194.05897645629,
        -11558.879613876343
      ],
      "max": [
        5431.768971809234,
        -22193.810862229708,
        -11558.879613876343
      ]
    },
    {
      "bufferView": 25,
      "componentType": 5126,
      "count": 4,
      "type": "VEC2"
    },
    {
      "bufferView": 26,
      "componentType": 5123,
      "count": 6,
      "type": "SCALAR"
    },
    {
      "bufferView": 27,
      "componentType": 5126,
      "count": 4,
      "type": "VEC3",
      "min": [
        -5184.268436751154,
        -22095.65170793212,
        -11573.143005371094
      ],
      "max": [
        -5184.020318665716,
        -22095.403593705538,
        -11573.143005371094
      ]
    },
    {
      "bufferView": 28,
      "componentType": 5126,
      "count": 4,
      "type": "VEC2"
    },
    {
      "bufferView": 29,
      "componentType": 5123,
      "count": 6,
      "type": "SCALAR"
    },
    {
      "bufferView": 30,
      "componentType": 5126,
      "count": 4,
      "type": "VEC3",
      "min": [
        2.4635275985929184,
        30807.950415328378,
        3840.1490449905396
      ],
      "max": [
        2.7116456840303726,
        30808.198533341056,
        3840.1490449905396
      ]
    },
    {
      "bufferView": 31,
      "componentType": 5126,
      "count": 4,
      "type": "VEC2"
    },
    {
      "bufferView": 32,
      "componentType": 5123,
      "count": 6,
      "type": "SCALAR"
    },
    {
      "bufferView": 33,
      "componentType": 5126,
      "count": 4,
      "type": "VEC3",
      "min": [
        -210.81008702822146,
        -506.51349812142143,
        11614.14384841919
      ],
      "max": [
        -210.5619689791638,
        -506.26538009055366,
        11614.14384841919
      ]
    },
    {
      "bufferView": 34,
      "componentType": 5126,
      "count": 4,
      "type": "VEC2"
    },
    {
      "bufferView": 35,
      "componentType": 5123,
      "count": 6,
      "type": "SCALAR"
    },
    {
      "bufferView": 36,
      "componentType": 5126,
      "count": 10,
      "type": "VEC3",
      "min": [
        -53.34747867891565,
        -27562.48482410371,
        6272.248299775239
      ],
      "max": [
        -52.77382297208533,
        -27562.484658318164,
        6272.426576297221
      ]
    },
    {
      "bufferView": 37,
      "componentType": 5126,
      "count": 10,
      "type": "VEC2"
    },
    {
      "bufferView": 38,
      "componentType": 5123,
      "count": 24,
      "type": "SCALAR"
    },
    {
      "bufferView": 39,
      "componentType": 5126,
      "count": 4,
      "type": "VEC3",
      "min": [
        -4448.126615898218,
        -31606.10578540866,
        10700.774087526952
      ],
      "max": [
        -4446.724591834936,
        -31606.088657340362,
        10702.176199338282
      ]
    },
    {
      "bufferView": 40,
      "componentType": 5126,
      "count": 4,
      "type": "VEC2"
    },
    {
      "bufferView": 41,
      "componentType": 5123,
      "count": 6,
      "type": "SCALAR"
    },
    {
      "bufferView": 42,
      "componentType": 5126,
      "count": 4,
      "type": "VEC3",
      "min": [
        5387.1243577304995,
        -31606.10578540866,
        10700.774108922133
      ],
      "max": [
        5388.5263819393,
        -31606.088657340362,
        10702.176199338282
      ]
    },
    {
      "bufferView": 43,
      "componentType": 5126,
      "count": 4,
      "type": "VEC2"
    },
    {
      "bufferView": 44,
      "componentType": 5123,
      "count": 6,
      "type": "SCALAR"
    },
    {
      "bufferView": 45,
      "componentType": 5126,
      "count": 4,
      "type": "VEC3",
      "min": [
        10.026631935033947,
        -31606.10578540866,
        10700.774108922133
      ],
      "max": [
        11.428655998315662,
        -31606.088657340362,
        10702.176199338282
      ]
    },
    {
      "bufferView": 46,
      "componentType": 5126,
      "count": 4,
      "type": "VEC2"
    },
    {
      "bufferView": 47,
      "componentType": 5123,
      "count": 6,
      "type": "SCALAR"
    }
  ],
  "materials": [
    {
      "name": "mat_0",
      "pbrMetallicRoughness": {
        "baseColorFactor": [
          1.0,
          1.0,
          1.0,
          1.0
        ],
        "baseColorTexture": {
          "index": 0
        }
      },
      "doubleSided": true
    },
    {
      "name": "mat_1",
      "pbrMetallicRoughness": {
        "baseColorFactor": [
          1.0,
          1.0,
          1.0,
          1.0
        ],
        "baseColorTexture": {
          "index": 1
        }
      },
      "doubleSided": true
    },
    {
      "name": "mat_2",
      "pbrMetallicRoughness": {
        "baseColorFactor": [
          1.0,
          1.0,
          1.0,
          1.0
        ],
        "baseColorTexture": {
          "index": 2
        }
      },
      "doubleSided": true
    },
    {
      "name": "mat_3",
      "pbrMetallicRoughness": {
        "baseColorFactor": [
          1.0,
          1.0,
          1.0,
          1.0
        ],
        "baseColorTexture": {
          "index": 3
        }
      },
      "doubleSided": true
    },
    {
      "name": "mat_4",
      "pbrMetallicRoughness": {
        "baseColorFactor": [
          1.0,
          1.0,
          1.0,
          1.0
        ],
        "baseColorTexture": {
          "index": 4
        }
      },
      "doubleSided": true
    },
    {
      "name": "mat_5",
      "pbrMetallicRoughness": {
        "baseColorFactor": [
          1.0,
          1.0,
          1.0,
          1.0
        ],
        "baseColorTexture": {
          "index": 5
        }
      },
      "doubleSided": true
    },
    {
      "name": "mat_6",
      "pbrMetallicRoughness": {
        "baseColorFactor": [
          1.0,
          1.0,
          1.0,
          1.0
        ],
        "baseColorTexture": {
          "index": 4
        }
      },
      "doubleSided": true
    },
    {
      "name": "mat_7",
      "pbrMetallicRoughness": {
        "baseColorFactor": [
          1.0,
          1.0,
          1.0,
          1.0
        ],
        "baseColorTexture": {
          "index": 6
        }
      },
      "doubleSided": true
    }
  ],
  "images": [
    {
      "uri": "shuttle_parts04.tga"
    },
    {
      "uri": "shuttle_parts01.tga"
    },
    {
      "uri": "shuttle_parts03.tga"
    },
    {
      "uri": "shuttle_parts02.tga"
    },
    {
      "uri": "rstick_fireflare.tga"
    },
    {
      "uri": "Light_LilRedFlare01.tga"
    },
    {
      "uri": "watermist_noalpha.tga"
    }
  ],
  "textures": [
    {
      "source": 0,
      "sampler": 0
    },
    {
      "source": 1,
      "sampler": 0
    },
    {
      "source": 2,
      "sampler": 0
    },
    {
      "source": 3,
      "sampler": 0
    },
    {
      "source": 4,
      "sampler": 0
    },
    {
      "source": 5,
      "sampler": 0
    },
    {
      "source": 6,
      "sampler": 0
    }
  ],
  "samplers": [
    {
      "magFilter": 9729,
      "minFilter": 9729,
      "wrapS": 10497,
      "wrapT": 10497
    }
  ]
}