{
  "asset": {
    "version": "2.0",
    "generator": "vfx2obj"
  },
  "scenes": [
    {
      "nodes": [
        0,
        1
      ]
    }
  ],
  "scene": 0,
  "nodes": [
    {
      "name": "FlagMesh",
      "mesh": 0
    },
    {
      "name": "flagpole",
      "mesh": 1
    }
  ],
  "meshes": [
    {
      "name": "FlagMesh",
      "primitives": [
        {
          "attributes": {
            "POSITION": 0,
            "TEXCOORD_0": 1
          },
          "indices": 2,
          "material": 0
        }
      ]
    },
    {
      "name": "flagpole",
      "primitives": [
        {
          "attributes": {
            "POSITION": 3,
            "TEXCOORD_0": 4
          },
          "indices": 5,
          "material": 0
        }
      ]
    }
  ],
  "buffers": [
    {
      "uri": "CTFflag-blue.bin",
      "byteLength": 2240
    }
  ],
  "bufferViews": [
    {
      "buffer": 0,
      "byteOffset": 0,
      "byteLength": 444,
      "target": 34962
    },
    {
      "buffer": 0,
      "byteOffset": 444,
      "byteLength": 296,
      "target": 34962
    },
    {
      "buffer": 0,
      "byteOffset": 740,
      "byteLength": 588,
      "target": 34963
    },
    {
      "buffer": 0,
      "byteOffset": 1328,
      "byteLength": 288,
      "target": 34962
    },
    {
      "buffer": 0,
      "byteOffset": 1616,
      "byteLength": 192,
      "target": 34962
    },
    {
      "buffer": 0,
      "byteOffset": 1808,
      "byteLength": 432,
      "target": 34963
    }
  ],
  "accessors": [
    {
      "bufferView": 0,
      "componentType": 5126,
      "count": 37,
      "type": "VEC3",
      "min": [
        -35.80069646886841,
        649.1753038384047,
        -5834.9417653179735
      ],
      "max": [
        -35.534738444766845,
        649.2107037089738,
        -5834.571221818867
      ]
    },
    {
      "bufferView": 1,
      "componentType": 5126,
      "count": 37,
      "type": "VEC2"
    },
    {
      "bufferView": 2,
      "componentType": 5123,
      "count": 294,
      "type": "SCALAR"
    },
    {
      "bufferView": 3,
      "componentType": 5126,
      "count": 24,
      "type": "VEC3",
      "min": [
        -0.9122479497544236,
        1592.7577638467483,
        -56142.86671893944
      ],
      "max": [
        0.9122479497544236,
        1592.9796672025986,
        -56138.69417888771
      ]
    },
    {
      "bufferView": 4,
      "componentType": 5126,
      "count": 24,
      "type": "VEC2"
    },
    {
      "bufferView": 5,
      "componentType": 5123,
      "count": 216,
      "type": "SCALAR"
    }
  ],
  "materials": [
    {
      "name": "mat_0",
      "pbrMetallicRoughness": {
        "baseColorFactor": [
          1.0,
          1.0,
          1.0,
          1.0
        ],
        "baseColorTexture": {
          "index": 0
        }
      },
      "doubleSided": true
    }
  ],
  "images": [
    {
      "uri": "CTFflag-blue.tga"
    }
  ],
  "textures": [
    {
      "source": 0,
      "sampler": 0
    }
  ],
  "samplers": [
    {
      "magFilter": 9729,
      "minFilter": 9729,
      "wrapS": 10497,
      "wrapT": 10497
    }
  ]
}