{
  "asset": {
    "version": "2.0",
    "generator": "vfx2obj"
  },
  "scenes": [
    {
      "nodes": [
        0,
        1,
        2,
        3,
        4,
        5,
        6,
        7
      ]
    }
  ],
  "scene": 0,
  "nodes": [
    {
      "name": "Rail1-01",
      "mesh": 0
    },
    {
      "name": "Rail1-02",
      "mesh": 1
    },
    {
      "name": "Rail1-03",
      "mesh": 2
    },
    {
      "name": "Rail1-04",
      "mesh": 3
    },
    {
      "name": "Rail2-03",
      "mesh": 4
    },
    {
      "name": "Rail2-02",
      "mesh": 5
    },
    {
      "name": "Rail2-01",
      "mesh": 6
    },
    {
      "name": "Rail2-04",
      "mesh": 7
    }
  ],
  "meshes": [
    {
      "name": "Rail1-01",
      "primitives": [
        {
          "attributes": {
            "POSITION": 0,
            "TEXCOORD_0": 1
          },
          "indices": 2,
          "material": 0
        }
      ]
    },
    {
      "name": "Rail1-02",
      "primitives": [
        {
          "attributes": {
            "POSITION": 3,
            "TEXCOORD_0": 4
          },
          "indices": 5,
          "material": 0
        }
      ]
    },
    {
      "name": "Rail1-03",
      "primitives": [
        {
          "attributes": {
            "POSITION": 6,
            "TEXCOORD_0": 7
          },
          "indices": 8,
          "material": 0
        }
      ]
    },
    {
      "name": "Rail1-04",
      "primitives": [
        {
          "attributes": {
            "POSITION": 9,
            "TEXCOORD_0": 10
          },
          "indices": 11,
          "material": 0
        }
      ]
    },
    {
      "name": "Rail2-03",
      "primitives": [
        {
          "attributes": {
            "POSITION": 12,
            "TEXCOORD_0": 13
          },
          "indices": 14,
          "material": 0
        }
      ]
    },
    {
      "name": "Rail2-02",
      "primitives": [
        {
          "attributes": {
            "POSITION": 15,
            "TEXCOORD_0": 16
          },
          "indices": 17,
          "material": 0
        }
      ]
    },
    {
      "name": "Rail2-01",
      "primitives": [
        {
          "attributes": {
            "POSITION": 18,
            "TEXCOORD_0": 19
          },
          "indices": 20,
          "material": 0
        }
      ]
    },
    {
      "name": "Rail2-04",
      "primitives": [
        {
          "attributes": {
            "POSITION": 21,
            "TEXCOORD_0": 22
          },
          "indices": 23,
          "material": 0
        }
      ]
    }
  ],
  "buffers": [
    {
      "uri": "railrifleglow.bin",
      "byteLength": 832
    }
  ],
  "bufferViews": [
    {
      "buffer": 0,
      "byteOffset": 0,
      "byteLength": 48,
      "target": 34962
    },
    {
      "buffer": 0,
      "byteOffset": 48,
      "byteLength": 32,
      "target": 34962
    },
    {
      "buffer": 0,
      "byteOffset": 80,
      "byteLength": 24,
      "target": 34963
    },
    {
      "buffer": 0,
      "byteOffset": 104,
      "byteLength": 48,
      "target": 34962
    },
    {
      "buffer": 0,
      "byteOffset": 152,
      "byteLength": 32,
      "target": 34962
    },
    {
      "buffer": 0,
      "byteOffset": 184,
      "byteLength": 24,
      "target": 34963
    },
    {
      "buffer": 0,
      "byteOffset": 208,
      "byteLength": 48,
      "target": 34962
    },
    {
      "buffer": 0,
      "byteOffset": 256,
      "byteLength": 32,
      "target": 34962
    },
    {
      "buffer": 0,
      "byteOffset": 288,
      "byteLength": 24,
      "target": 34963
    },
    {
      "buffer": 0,
      "byteOffset": 312,
      "byteLength": 48,
      "target": 34962
    },
    {
      "buffer": 0,
      "byteOffset": 360,
      "byteLength": 32,
      "target": 34962
    },
    {
      "buffer": 0,
      "byteOffset": 392,
      "byteLength": 24,
      "target": 34963
    },
    {
      "buffer": 0,
      "byteOffset": 416,
      "byteLength": 48,
      "target": 34962
    },
    {
      "buffer": 0,
      "byteOffset": 464,
      "byteLength": 32,
      "target": 34962
    },
    {
      "buffer": 0,
      "byteOffset": 496,
      "byteLength": 24,
      "target": 34963
    },
    {
      "buffer": 0,
      "byteOffset": 520,
      "byteLength": 48,
      "target": 34962
    },
    {
      "buffer": 0,
      "byteOffset": 568,
      "byteLength": 32,
      "target": 34962
    },
    {
      "buffer": 0,
      "byteOffset": 600,
      "byteLength": 24,
      "target": 34963
    },
    {
      "buffer": 0,
      "byteOffset": 624,
      "byteLength": 48,
      "target": 34962
    },
    {
      "buffer": 0,
      "byteOffset": 672,
      "byteLength": 32,
      "target": 34962
    },
    {
      "buffer": 0,
      "byteOffset": 704,
      "byteLength": 24,
      "target": 34963
    },
    {
      "buffer": 0,
      "byteOffset": 728,
      "byteLength": 48,
      "target": 34962
    },
    {
      "buffer": 0,
      "byteOffset": 776,
      "byteLength": 32,
      "target": 34962
    },
    {
      "buffer": 0,
      "byteOffset": 808,
      "byteLength": 24,
      "target": 34963
    }
  ],
  "accessors": [
    {
      "bufferView": 0,
      "componentType": 5126,
      "count": 4,
      "type": "VEC3",
      "min": [
        -0.1776545423126663,
        -64.85716897714155,
        -346.97074443101883
      ],
      "max": [
        -0.047651014938310254,
        -64.7668401552437,
        -346.97074443101883
      ]
    },
    {
      "bufferView": 1,
      "componentType": 5126,
      "count": 4,
      "type": "VEC2"
    },
    {
      "bufferView": 2,
      "componentType": 5123,
      "count": 12,
      "type": "SCALAR"
    },
    {
      "bufferView": 3,
      "componentType": 5126,
      "count": 4,
      "type": "VEC3",
      "min": [
        -2012.814463104256,
        -64.85716897714155,
        -346.9712659716606
      ],
      "max": [
        -2012.6844615515438,
        -64.7668401552437,
        -346.9712659716606
      ]
    },
    {
      "bufferView": 4,
      "componentType": 5126,
      "count": 4,
      "type": "VEC2"
    },
    {
      "bufferView": 5,
      "componentType": 5123,
      "count": 12,
      "type": "SCALAR"
    },
    {
      "bufferView": 6,
      "componentType": 5126,
      "count": 4,
      "type": "VEC3",
      "min": [
        -4176.549348158005,
        -64.85701996552962,
        -346.9718247652054
      ],
      "max": [
        -4176.419346605293,
        -64.76669114363176,
        -346.9718247652054
      ]
    },
    {
      "bufferView": 7,
      "componentType": 5126,
      "count": 4,
      "type": "VEC2"
    },
    {
      "bufferView": 8,
      "componentType": 5123,
      "count": 12,
      "type": "SCALAR"
    },
    {
      "bufferView": 9,
      "componentType": 5126,
      "count": 4,
      "type": "VEC3",
      "min": [
        -6013.296279215865,
        -64.85694545972365,
        -346.9715267419815
      ],
      "max": [
        -6013.166275715776,
        -64.76661663782579,
        -346.9715267419815
      ]
    },
    {
      "bufferView": 10,
      "componentType": 5126,
      "count": 4,
      "type": "VEC2"
    },
    {
      "bufferView": 11,
      "componentType": 5123,
      "count": 12,
      "type": "SCALAR"
    },
    {
      "bufferView": 12,
      "componentType": 5126,
      "count": 4,
      "type": "VEC3",
      "min": [
        -4176.548752111557,
        -64.85701996552962,
        -0.001274393355288339
      ],
      "max": [
        -4176.418750558845,
        -64.76669114363176,
        -0.001274393355288339
      ]
    },
    {
      "bufferView": 13,
      "componentType": 5126,
      "count": 4,
      "type": "VEC2"
    },
    {
      "bufferView": 14,
      "componentType": 5123,
      "count": 12,
      "type": "SCALAR"
    },
    {
      "bufferView": 15,
      "componentType": 5126,
      "count": 4,
      "type": "VEC3",
      "min": [
        -2012.8159532203754,
        -64.85716897714155,
        -0.0015901348149327532
      ],
      "max": [
        -2012.6859516676632,
        -64.7668401552437,
        -0.0015901348149327532
      ]
    },
    {
      "bufferView": 16,
      "componentType": 5126,
      "count": 4,
      "type": "VEC2"
    },
    {
      "bufferView": 17,
      "componentType": 5123,
      "count": 12,
      "type": "SCALAR"
    },
    {
      "bufferView": 18,
      "componentType": 5126,
      "count": 4,
      "type": "VEC3",
      "min": [
        -0.17810157714848174,
        -64.85716897714155,
        -4.954411325641672e-06
      ],
      "max": [
        -0.048098049774125684,
        -64.7668401552437,
        -4.954411325641672e-06
      ]
    },
    {
      "bufferView": 19,
      "componentType": 5126,
      "count": 4,
      "type": "VEC2"
    },
    {
      "bufferView": 20,
      "componentType": 5123,
      "count": 12,
      "type": "SCALAR"
    },
    {
      "bufferView": 21,
      "componentType": 5126,
      "count": 4,
      "type": "VEC3",
      "min": [
        -6013.296875262313,
        -64.85709447133559,
        -0.0019295421793685819
      ],
      "max": [
        -6013.166871762223,
        -64.76676564943773,
        -0.0019295421793685819
      ]
    },
    {
      "bufferView": 22,
      "componentType": 5126,
      "count": 4,
      "type": "VEC2"
    },
    {
      "bufferView": 23,
      "componentType": 5123,
      "count": 12,
      "type": "SCALAR"
    }
  ],
  "materials": [
    {
      "name": "mat_0",
      "pbrMetallicRoughness": {
        "baseColorFactor": [
          1.0,
          1.0,
          1.0,
          1.0
        ],
        "baseColorTexture": {
          "index": 0
        }
      },
      "doubleSided": true
    },
    {
      "name": "mat_1",
      "pbrMetallicRoughness": {
        "baseColorFactor": [
          1.0,
          1.0,
          1.0,
          1.0
        ],
        "baseColorTexture": {
          "index": 0
        }
      },
      "doubleSided": true
    },
    {
      "name": "mat_2",
      "pbrMetallicRoughness": {
        "baseColorFactor": [
          1.0,
          1.0,
          1.0,
          1.0
        ],
        "baseColorTexture": {
          "index": 0
        }
      },
      "doubleSided": true
    },
    {
      "name": "mat_3",
      "pbrMetallicRoughness": {
        "baseColorFactor": [
          1.0,
          1.0,
          1.0,
          1.0
        ],
        "baseColorTexture": {
          "index": 0
        }
      },
      "doubleSided": true
    }
  ],
  "images": [
    {
      "uri": "railrifleGlowAlpha.tga"
    }
  ],
  "textures": [
    {
      "source": 0,
      "sampler": 0
    }
  ],
  "samplers": [
    {
      "magFilter": 9729,
      "minFilter": 9729,
      "wrapS": 10497,
      "wrapT": 10497
    }
  ]
}